<?xml version="1.0" encoding="UTF-8"?>
<svg id="Layer_1" data-name="Layer 1" xmlns="http://www.w3.org/2000/svg" xmlns:xlink="http://www.w3.org/1999/xlink" viewBox="0 0 141.75 75.96">
  <defs>
    <style>
      .cls-1 {
        fill: url(#linear-gradient);
      }

      .cls-2 {
        fill: #1f3c82;
      }

      .cls-3 {
        fill: #868686;
      }
    </style>
    <linearGradient id="linear-gradient" x1="28.75" y1="51.3" x2="141.75" y2="51.3" gradientTransform="translate(0 81.2) scale(1 -1)" gradientUnits="userSpaceOnUse">
      <stop offset="0" stop-color="#3496a8"/>
      <stop offset=".18" stop-color="#7f4c99"/>
      <stop offset=".39" stop-color="#db3938"/>
      <stop offset=".59" stop-color="#e1823a"/>
      <stop offset=".81" stop-color="#30a636"/>
      <stop offset="1" stop-color="#f1c139"/>
    </linearGradient>
  </defs>
  <polygon class="cls-3" points="58.56 44.2 58.56 61.47 20.76 61.47 20.76 23.67 58.56 23.67 60.66 23.67 60.66 21.57 18.66 21.57 18.66 63.57 60.66 63.57 60.66 44.21 58.56 44.2"/>
  <path class="cls-1" d="m141.74,0S62.69,22.84,39.39,58.61c0,0-1.73,2.83-2.53-.25-.53-1.96-1.07-3.91-1.6-5.87-1.14-4.12-2.29-8.24-3.48-12.35-.56-1.94-1.13-3.88-1.72-5.81-.6-1.96-1.74-4.06-1.15-6.16.16-.56.48-1.07,1.04-1.29,2.39-.92,3.26,1.84,4.05,3.5,1.22,2.54,2.25,5.15,3.25,7.79,1.14,3.03,2.15,6.12,3.01,9.25C40.26,47.42,76.06,9.61,141.75,0h0Z"/>
  <g>
    <path class="cls-2" d="m6.79,75.84h-1.72l-.4-1.01h-2.6l-.39,1.01H0l2.64-6.27h1.45l2.71,6.27h-.01Zm-3.46-4.59c-.02.1-.04.19-.06.27-.02.08-.04.16-.07.24-.03.08-.06.17-.09.27-.04.1-.08.22-.14.36l-.41,1.15h1.58l-.44-1.19c-.06-.14-.1-.25-.14-.35-.03-.1-.06-.19-.09-.26-.03-.08-.05-.16-.07-.23s-.04-.16-.06-.26h-.02.01Z"/>
    <path class="cls-2" d="m7.87,69.56h1.59v4c0,.17.02.29.03.36.04.21.16.38.35.51.19.13.44.2.74.2.17,0,.31-.02.43-.05.12-.03.22-.08.3-.13.08-.06.14-.12.19-.2.04-.07.07-.15.09-.24.02-.1.03-.23.04-.39,0-.17.01-.37.01-.6v-3.45h1.59v3.29c0,.37,0,.67-.02.92-.01.24-.04.45-.08.63-.04.17-.09.32-.16.45-.07.12-.16.25-.26.38-.11.11-.23.21-.36.3s-.28.16-.45.23c-.17.06-.36.11-.57.14s-.44.05-.71.05c-.45,0-.83-.04-1.14-.12s-.56-.19-.77-.33c-.2-.14-.36-.3-.47-.47-.11-.18-.2-.36-.25-.55-.04-.18-.07-.4-.09-.67s-.03-.56-.03-.89v-3.37Z"/>
    <path class="cls-2" d="m18.56,75.84v-6.27h2.21c.39,0,.72,0,1,.02.28.01.52.06.73.13.18.07.35.16.5.27.15.11.28.25.39.4.11.15.19.33.25.51.06.19.09.38.09.59,0,.31-.05.58-.14.82-.09.23-.21.43-.36.59-.15.16-.31.29-.49.39s-.36.16-.54.2c-.16.03-.36.06-.58.07s-.48.02-.77.02h-.68v2.27h-1.61Zm1.59-5.01v1.47h.55c.48,0,.8-.03.95-.09.14-.06.25-.15.33-.26s.12-.25.12-.39c0-.18-.06-.33-.17-.46-.11-.12-.25-.2-.43-.23-.07-.01-.18-.02-.33-.03s-.33-.01-.55-.01h-.47Z"/>
    <path class="cls-2" d="m30.37,75.84h-1.72l-.4-1.01h-2.6l-.39,1.01h-1.68l2.64-6.27h1.45l2.71,6.27h-.01Zm-3.46-4.59c-.02.1-.04.19-.06.27s-.04.16-.07.24c-.03.08-.06.17-.09.27-.04.1-.08.22-.14.36l-.41,1.15h1.58l-.44-1.19c-.06-.14-.1-.25-.14-.35-.03-.1-.06-.19-.09-.26-.03-.08-.05-.16-.07-.23s-.04-.16-.06-.26h-.02,0Z"/>
    <path class="cls-2" d="m31.49,75.84v-6.27h2.85c.36,0,.66.01.91.04s.47.07.65.14c.18.06.33.14.45.25.12.1.23.23.34.37.1.15.17.31.22.48s.07.35.07.54c0,.17-.02.34-.06.51-.04.18-.11.34-.23.5-.11.16-.27.31-.47.44-.2.13-.47.24-.8.33v.02c.2.08.4.21.59.39s.38.42.57.7l1.03,1.56h-1.89l-.9-1.37c-.19-.29-.36-.51-.51-.68s-.27-.27-.37-.33c-.05-.03-.1-.05-.15-.07s-.1-.03-.16-.04c-.06,0-.12-.02-.2-.02h-.35v2.51s-1.59,0-1.59,0Zm2.38-3.74h.63c.16,0,.28-.02.38-.03.16-.03.28-.1.36-.21s.11-.24.11-.39c0-.16-.05-.29-.14-.4-.09-.1-.22-.17-.38-.19-.06,0-.17-.01-.32-.02h-1.43v1.25h.79,0Z"/>
    <path class="cls-2" d="m44.3,73.78c-.21.73-.55,1.27-1.02,1.63-.47.35-1.07.53-1.79.53-.45,0-.86-.07-1.23-.22s-.69-.36-.96-.64-.48-.61-.63-1.01c-.15-.39-.22-.83-.22-1.32s.07-.98.22-1.38c.15-.41.36-.75.63-1.04s.6-.5.98-.65.81-.22,1.27-.22c.69,0,1.27.16,1.74.49.47.33.8.82.98,1.5l-1.6.25c-.1-.34-.25-.58-.45-.72s-.45-.21-.74-.21c-.21,0-.4.03-.57.1-.17.06-.33.17-.45.32s-.23.34-.29.58-.1.54-.1.89c0,.37.04.68.1.93.07.25.17.45.29.61.12.15.27.26.44.33s.36.1.55.1c.29,0,.54-.09.75-.28.21-.18.38-.48.5-.88l1.58.3h.02Z"/>
    <path class="cls-2" d="m45.8,75.84v-6.27h1.59v2.36h2.3v-2.36h1.59v6.27h-1.59v-2.63h-2.3v2.63h-1.59Z"/>
    <path class="cls-2" d="m53.24,75.84v-6.27h5.01v1.28h-3.42v1.06h3.18v1.29h-3.18v1.36h3.54v1.28h-5.13Z"/>
    <path class="cls-2" d="m63.44,73.9c.01-.1.03-.19.04-.27.01-.08.03-.17.05-.26.02-.09.04-.18.07-.28s.06-.22.1-.36l1.01-3.17h2.22v6.27h-1.44v-4.53h-.02l-1.41,4.53h-1.25l-1.42-4.53h-.02v4.53h-1.44v-6.27h2.22l1.03,3.19c.04.13.07.25.09.35.03.1.05.19.07.28s.03.17.05.25c.01.08.03.17.05.26h.03-.03Z"/>
    <path class="cls-2" d="m68.88,75.84v-6.27h1.59v6.27h-1.59Z"/>
    <path class="cls-2" d="m72.43,75.84v-6.27h1.5l2.43,3.83h.02v-3.83h1.5v6.27h-1.53l-2.4-3.77h-.02v3.77h-1.5Z"/>
  </g>
</svg>